<svg width="23" height="25" viewBox="0 0 23 25" fill="none" xmlns="http://www.w3.org/2000/svg">
<path d="M5.10406 18.9584V6.04156C5.10406 5.74656 5.20427 5.49917 5.40469 5.29938C5.6051 5.09979 5.85333 5 6.14938 5C6.44563 5 6.69271 5.09979 6.89062 5.29938C7.08854 5.49917 7.1875 5.74656 7.1875 6.04156V18.9584C7.1875 19.2534 7.08729 19.5008 6.88688 19.7006C6.68667 19.9002 6.43844 20 6.14219 20C5.84594 20 5.59885 19.9002 5.40094 19.7006C5.20302 19.5008 5.10406 19.2534 5.10406 18.9584ZM10.2084 23.9584V1.04156C10.2084 0.746563 10.3085 0.499167 10.5088 0.299376C10.7092 0.0997922 10.9575 0 11.2537 0C11.5498 0 11.7968 0.0997922 11.9947 0.299376C12.1926 0.499167 12.2916 0.746563 12.2916 1.04156V23.9584C12.2916 24.2534 12.1915 24.5008 11.9913 24.7006C11.7908 24.9002 11.5425 25 11.2463 25C10.9502 25 10.7032 24.9002 10.5053 24.7006C10.3074 24.5008 10.2084 24.2534 10.2084 23.9584ZM0 13.9584V11.0416C0 10.7466 0.100208 10.4992 0.300625 10.2994C0.500833 10.0998 0.749062 10 1.04531 10C1.34156 10 1.58865 10.0998 1.78656 10.2994C1.98448 10.4992 2.08344 10.7466 2.08344 11.0416V13.9584C2.08344 14.2534 1.98323 14.5008 1.78281 14.7006C1.5824 14.9002 1.33417 15 1.03813 15C0.741875 15 0.494792 14.9002 0.296875 14.7006C0.0989583 14.5008 0 14.2534 0 13.9584ZM15.3125 18.9584V6.04156C15.3125 5.74656 15.4127 5.49917 15.6131 5.29938C15.8133 5.09979 16.0616 5 16.3578 5C16.6541 5 16.9011 5.09979 17.0991 5.29938C17.297 5.49917 17.3959 5.74656 17.3959 6.04156V18.9584C17.3959 19.2534 17.2957 19.5008 17.0953 19.7006C16.8949 19.9002 16.6467 20 16.3506 20C16.0544 20 15.8073 19.9002 15.6094 19.7006C15.4115 19.5008 15.3125 19.2534 15.3125 18.9584ZM20.4166 13.9584V11.0416C20.4166 10.7466 20.5168 10.4992 20.7172 10.2994C20.9176 10.0998 21.1658 10 21.4619 10C21.7581 10 22.0052 10.0998 22.2031 10.2994C22.401 10.4992 22.5 10.7466 22.5 11.0416V13.9584C22.5 14.2534 22.3998 14.5008 22.1994 14.7006C21.9992 14.9002 21.7509 15 21.4547 15C21.1584 15 20.9114 14.9002 20.7134 14.7006C20.5155 14.5008 20.4166 14.2534 20.4166 13.9584Z" fill="white"/>
</svg>
