<svg width="200" height="200" viewBox="0 0 200 200" fill="none" xmlns="http://www.w3.org/2000/svg">
<mask id="mask0_7328_2478" style="mask-type:alpha" maskUnits="userSpaceOnUse" x="0" y="0" width="200" height="200">
<rect width="200" height="200" fill="#D9D9D9"/>
</mask>
<g mask="url(#mask0_7328_2478)">
<path d="M13.8815 83.8625L4.08984 74.2313C17.326 62.2549 32.1815 53.1389 48.6565 46.8833C65.1301 40.6278 82.2454 37.5 100.002 37.5C117.759 37.5 134.875 40.6278 151.348 46.8833C167.823 53.1389 182.679 62.2549 195.915 74.2313L186.123 83.8625C174.201 73.1458 160.857 64.9965 146.092 59.4146C131.327 53.8326 115.963 51.0417 100.002 51.0417C84.0412 51.0417 68.678 53.8326 53.9128 59.4146C39.1475 64.9965 25.8037 73.1458 13.8815 83.8625ZM90.419 158.806C87.769 156.183 86.444 152.975 86.444 149.183C86.444 145.529 87.7906 142.383 90.4836 139.744C93.1753 137.105 96.3482 135.785 100.002 135.785C103.741 135.785 106.936 137.083 109.586 139.679C112.236 142.275 113.561 145.456 113.561 149.223C113.561 152.988 112.236 156.183 109.586 158.806C106.936 161.428 103.741 162.74 100.002 162.74C96.2635 162.74 93.069 161.428 90.419 158.806ZM61.6378 130.496L51.9253 120.785C58.635 115.07 66.1246 110.706 74.394 107.692C82.6635 104.679 91.1996 103.173 100.002 103.173C106.125 103.173 112.035 103.902 117.734 105.36C123.434 106.819 128.923 108.937 134.2 111.715C132.352 113.253 130.712 114.947 129.282 116.794C127.85 118.642 126.572 120.576 125.45 122.596C121.434 120.662 117.304 119.247 113.063 118.35C108.821 117.451 104.468 117.002 100.002 117.002C92.9399 117.002 86.1211 118.137 79.5461 120.408C72.9697 122.679 67.0003 126.042 61.6378 130.496ZM37.9023 107.244L28.1919 97.6125C38.1808 88.6694 49.3267 81.8771 61.6294 77.2354C73.9322 72.5937 86.7926 70.2729 100.211 70.2729C113.49 70.2729 126.281 72.5722 138.584 77.1708C150.886 81.7708 162.032 88.5153 172.021 97.4042L167.854 101.571C167.064 101.357 166.212 101.223 165.298 101.169C164.384 101.116 163.452 101.09 162.502 101.09C161.188 101.09 159.93 101.119 158.727 101.177C157.526 101.237 156.295 101.352 155.034 101.523C147.021 95.8604 138.372 91.5278 129.088 88.525C119.804 85.5236 110.179 84.0229 100.211 84.0229C88.726 84.0229 77.6308 86.0069 66.9253 89.975C56.2197 93.9444 46.5454 99.7007 37.9023 107.244ZM158.463 160.85C157.363 159.749 156.813 158.402 156.813 156.81C156.813 155.219 157.363 153.873 158.463 152.773C159.564 151.672 160.911 151.121 162.502 151.121C164.094 151.121 165.44 151.672 166.54 152.773C167.641 153.873 168.192 155.219 168.192 156.81C168.192 158.402 167.641 159.749 166.54 160.85C165.44 161.95 164.094 162.5 162.502 162.5C160.911 162.5 159.564 161.95 158.463 160.85ZM157.775 139.744V113.221H167.229V139.744H157.775Z" fill="white"/>
</g>
</svg>
