<svg width="181" height="67" viewBox="0 0 181 67" fill="none" xmlns="http://www.w3.org/2000/svg">
<path d="M35.3491 41.557C35.3491 43.2483 35.4665 45.0101 35.7014 46.8423C35.9363 48.6275 36.2182 50.0134 36.5471 51H27.6679C27.245 49.3087 27.0336 47.8523 27.0336 46.6309H26.6108C25.2484 48.2752 23.3927 49.5906 21.0437 50.5772C18.6947 51.5638 16.2752 52.057 13.7853 52.057C11.2014 52.057 8.89935 51.5638 6.87921 50.5772C4.90606 49.5906 3.35572 48.2047 2.2282 46.4195C1.14766 44.6342 0.607388 42.6141 0.607388 40.359C0.607388 37.9631 1.21813 35.8255 2.43961 33.9463C3.70807 32.0671 5.44632 30.6107 7.65438 29.5771C9.86244 28.5436 12.3759 28.0268 15.1947 28.0268C17.0739 28.0268 19 28.2852 20.9732 28.802C22.9464 29.2718 24.8256 29.9765 26.6108 30.9161V29.4362C26.6108 26.2416 25.7182 23.7281 23.9329 21.8959C22.1947 20.0637 19.8222 19.1476 16.8155 19.1476C14.9363 19.1476 13.1275 19.5469 11.3893 20.3456C9.65103 21.0972 8.10069 22.1543 6.73827 23.5167L4.06042 21.1207C6.08055 18.9127 8.38257 17.2449 10.9665 16.1174C13.5504 14.9899 16.3457 14.4261 19.3524 14.4261C22.547 14.4261 25.3423 15.0603 27.7383 16.3288C30.1813 17.5503 32.0605 19.2885 33.3759 21.5436C34.6914 23.7986 35.3491 26.4295 35.3491 29.4362V41.557ZM16.8859 47.1946C18.6242 47.1946 20.4094 46.7013 22.2417 45.7148C24.0739 44.6812 25.5303 43.3658 26.6108 41.7684V35.2147C25.1074 34.4161 23.5571 33.8053 21.9598 33.3825C20.4094 32.9127 19 32.6778 17.7316 32.6778C15.2886 32.6778 13.3155 33.359 11.8121 34.7214C10.3557 36.0839 9.62754 37.8926 9.62754 40.1476C9.62754 42.2147 10.2853 43.906 11.6007 45.2215C12.9631 46.5369 14.7249 47.1946 16.8859 47.1946ZM71.7793 15.4831H78.1216L62.4773 52.5503C58.5779 61.8524 53.5041 66.5034 47.2557 66.5034C45.6584 66.5034 44.1786 66.2215 42.8161 65.6577V60.5839H44.6484C47.3262 60.5839 49.5108 59.9497 51.2021 58.6812C52.8933 57.4597 54.3262 55.4161 55.5007 52.5503L56.2759 50.7181L40.2087 15.4831H49.7927L60.9269 40.8523H61.4202L71.7793 15.4831ZM114.008 41.557C114.008 43.2483 114.126 45.0101 114.361 46.8423C114.596 48.6275 114.878 50.0134 115.206 51H106.327C105.904 49.3087 105.693 47.8523 105.693 46.6309H105.27C103.908 48.2752 102.052 49.5906 99.703 50.5772C97.354 51.5638 94.9345 52.057 92.4446 52.057C89.8607 52.057 87.5587 51.5638 85.5385 50.5772C83.5654 49.5906 82.015 48.2047 80.8875 46.4195C79.807 44.6342 79.2667 42.6141 79.2667 40.359C79.2667 37.9631 79.8775 35.8255 81.0989 33.9463C82.3674 32.0671 84.1057 30.6107 86.3137 29.5771C88.5218 28.5436 91.0352 28.0268 93.854 28.0268C95.7332 28.0268 97.6594 28.2852 99.6325 28.802C101.606 29.2718 103.485 29.9765 105.27 30.9161V29.4362C105.27 26.2416 104.378 23.7281 102.592 21.8959C100.854 20.0637 98.4815 19.1476 95.4748 19.1476C93.5956 19.1476 91.7869 19.5469 90.0486 20.3456C88.3104 21.0972 86.76 22.1543 85.3976 23.5167L82.7197 21.1207C84.7399 18.9127 87.0419 17.2449 89.6258 16.1174C92.2097 14.9899 95.005 14.4261 98.0117 14.4261C101.206 14.4261 104.002 15.0603 106.398 16.3288C108.841 17.5503 110.72 19.2885 112.035 21.5436C113.351 23.7986 114.008 26.4295 114.008 29.4362V41.557ZM95.5453 47.1946C97.2835 47.1946 99.0688 46.7013 100.901 45.7148C102.733 44.6812 104.19 43.3658 105.27 41.7684V35.2147C103.767 34.4161 102.216 33.8053 100.619 33.3825C99.0688 32.9127 97.6594 32.6778 96.3909 32.6778C93.948 32.6778 91.9748 33.359 90.4714 34.7214C89.0151 36.0839 88.2869 37.8926 88.2869 40.1476C88.2869 42.2147 88.9446 43.906 90.26 45.2215C91.6225 46.5369 93.3842 47.1946 95.5453 47.1946ZM124.548 24.9261C124.548 23.2348 124.431 21.4966 124.196 19.7113C123.961 17.9261 123.679 16.5167 123.35 15.4831H132.3C132.676 16.9865 132.864 18.4664 132.864 19.9228H133.357C136.645 16.2583 140.639 14.4261 145.337 14.4261C148.625 14.4261 151.609 15.2717 154.286 16.963C157.011 18.6073 159.149 20.8624 160.699 23.7281C162.249 26.5939 163.025 29.7651 163.025 33.2416C163.025 36.7181 162.249 39.9127 160.699 42.8255C159.149 45.6913 157.011 47.9463 154.286 49.5906C151.609 51.2349 148.649 52.057 145.407 52.057C143.246 52.057 141.155 51.6812 139.135 50.9295C137.115 50.1309 135.353 49.0034 133.85 47.547H133.357V65.094H124.548V24.9261ZM142.447 47.0537C144.655 47.0537 146.629 46.4664 148.367 45.2919C150.152 44.1174 151.515 42.4966 152.454 40.4295C153.441 38.3154 153.934 35.9194 153.934 33.2416C153.934 30.6107 153.441 28.2382 152.454 26.1241C151.468 24.01 150.105 22.3657 148.367 21.1912C146.676 19.9697 144.796 19.359 142.729 19.359C140.897 19.359 139.135 19.8288 137.444 20.7684C135.8 21.708 134.437 23.0234 133.357 24.7147V42.1913C134.531 43.7416 135.894 44.9396 137.444 45.7852C139.041 46.6309 140.709 47.0537 142.447 47.0537ZM180.157 51H171.348V15.4831H180.157V51ZM175.717 10.1274C174.261 10.1274 173.039 9.65763 172.053 8.71803C171.066 7.73145 170.573 6.53346 170.573 5.12406C170.573 3.71466 171.066 2.51667 172.053 1.5301C173.039 0.543515 174.261 0.0502242 175.717 0.0502242C177.173 0.0502242 178.395 0.543515 179.381 1.5301C180.415 2.51667 180.932 3.71466 180.932 5.12406C180.932 6.53346 180.415 7.73145 179.381 8.71803C178.395 9.65763 177.173 10.1274 175.717 10.1274Z" fill="black"/>
</svg>
