<svg width="314" height="177" viewBox="0 0 314 177" fill="none" xmlns="http://www.w3.org/2000/svg">
<rect x="17" y="32" width="72" height="72" rx="36" fill="#040404"/>
<rect x="17" y="32" width="72" height="72" rx="36" stroke="black"/>
<path d="M38.1235 74V63.776H34.0915V61.4H45.0715V63.776H41.0395V74H38.1235ZM51.5303 74V72.11L51.3503 71.696V68.312C51.3503 67.712 51.1643 67.244 50.7923 66.908C50.4323 66.572 49.8743 66.404 49.1183 66.404C48.6023 66.404 48.0923 66.488 47.5883 66.656C47.0963 66.812 46.6763 67.028 46.3283 67.304L45.3203 65.342C45.8483 64.97 46.4843 64.682 47.2283 64.478C47.9723 64.274 48.7283 64.172 49.4963 64.172C50.9723 64.172 52.1183 64.52 52.9343 65.216C53.7503 65.912 54.1583 66.998 54.1583 68.474V74H51.5303ZM48.5783 74.144C47.8223 74.144 47.1743 74.018 46.6343 73.766C46.0943 73.502 45.6803 73.148 45.3923 72.704C45.1043 72.26 44.9603 71.762 44.9603 71.21C44.9603 70.634 45.0983 70.13 45.3743 69.698C45.6623 69.266 46.1123 68.93 46.7243 68.69C47.3363 68.438 48.1343 68.312 49.1183 68.312H51.6923V69.95H49.4243C48.7643 69.95 48.3083 70.058 48.0563 70.274C47.8163 70.49 47.6963 70.76 47.6963 71.084C47.6963 71.444 47.8343 71.732 48.1103 71.948C48.3983 72.152 48.7883 72.254 49.2803 72.254C49.7483 72.254 50.1683 72.146 50.5403 71.93C50.9123 71.702 51.1823 71.372 51.3503 70.94L51.7823 72.236C51.5783 72.86 51.2063 73.334 50.6663 73.658C50.1263 73.982 49.4303 74.144 48.5783 74.144ZM56.3396 74V60.644H59.1476V74H56.3396ZM63.7157 72.02L63.7877 68.6L68.3057 64.316H71.6537L67.3157 68.726L65.8577 69.914L63.7157 72.02ZM61.3937 74V60.644H64.2017V74H61.3937ZM68.6117 74L65.3357 69.932L67.0997 67.754L72.0137 74H68.6117Z" fill="#FFFBFB"/>
<rect x="125" y="32" width="72" height="72" rx="36" fill="#15803D"/>
<mask id="mask0_3423_4531" style="mask-type:alpha" maskUnits="userSpaceOnUse" x="137" y="44" width="48" height="48">
<rect x="137.5" y="44.5" width="47" height="47" fill="#D9D9D9" stroke="#22C55E"/>
</mask>
<g mask="url(#mask0_3423_4531)">
<path d="M161 49.0254C162.188 49.0254 163.197 49.4351 164.028 50.2559C164.859 51.0767 165.275 52.0811 165.275 53.2695V65.665C165.275 66.9077 164.868 67.9629 164.053 68.8311C163.239 69.6988 162.222 70.1328 161 70.1328C159.778 70.1328 158.761 69.6988 157.947 68.8311C157.132 67.9629 156.725 66.9077 156.725 65.665V53.2695C156.725 52.0811 157.141 51.0767 157.972 50.2559C158.803 49.4351 159.812 49.0254 161 49.0254ZM159.891 78.4072L159.868 78.4053C156.533 78.1035 153.726 76.7384 151.445 74.3096C149.171 71.887 148.032 69.0145 148.026 65.6904H150.245C150.251 68.6551 151.303 71.1547 153.4 73.1885C155.504 75.2277 158.037 76.248 161 76.248C163.963 76.248 166.496 75.2277 168.6 73.1885C170.697 71.1547 171.749 68.6551 171.755 65.6904H173.974C173.968 69.0145 172.829 71.887 170.555 74.3096C168.274 76.7384 165.467 78.1035 162.132 78.4053L162.109 78.4072V85.4746H159.891V78.4072Z" fill="white" stroke="#22C55E" stroke-width="0.05"/>
</g>
<rect x="233" y="32" width="72" height="72" rx="36" fill="#040404"/>
<rect x="233" y="32" width="72" height="72" rx="36" stroke="#FFFBFB"/>
<rect x="256" y="55" width="26" height="26" fill="white"/>
<path d="M36.4126 13V2.81818H39.853C40.6518 2.81818 41.3047 2.96236 41.8118 3.25071C42.3222 3.53575 42.7 3.92188 42.9453 4.40909C43.1906 4.89631 43.3132 5.43987 43.3132 6.03977C43.3132 6.63968 43.1906 7.1849 42.9453 7.67543C42.7034 8.16596 42.3288 8.55705 41.8217 8.84872C41.3146 9.13707 40.665 9.28125 39.8729 9.28125H37.407V8.1875H39.8331C40.38 8.1875 40.8191 8.09304 41.1506 7.90412C41.482 7.7152 41.7223 7.45999 41.8714 7.13849C42.0239 6.81368 42.1001 6.44744 42.1001 6.03977C42.1001 5.6321 42.0239 5.26752 41.8714 4.94602C41.7223 4.62453 41.4804 4.37263 41.1456 4.19034C40.8108 4.00473 40.3667 3.91193 39.8132 3.91193H37.6456V13H36.4126ZM45.1403 13V5.36364H46.2738V6.51705H46.3533C46.4925 6.1392 46.7444 5.83262 47.109 5.5973C47.4736 5.36198 47.8846 5.24432 48.342 5.24432C48.4281 5.24432 48.5359 5.24597 48.6651 5.24929C48.7944 5.2526 48.8922 5.25758 48.9585 5.2642V6.45739C48.9187 6.44744 48.8275 6.43253 48.685 6.41264C48.5458 6.38944 48.3983 6.37784 48.2425 6.37784C47.8713 6.37784 47.5399 6.45573 47.2482 6.61151C46.9599 6.76397 46.7312 6.97609 46.5621 7.24787C46.3964 7.51634 46.3136 7.82292 46.3136 8.16761V13H45.1403ZM53.3185 13.1591C52.5827 13.1591 51.948 12.9967 51.4144 12.6719C50.8841 12.3438 50.4748 11.8864 50.1864 11.2997C49.9014 10.7098 49.7589 10.0237 49.7589 9.24148C49.7589 8.45928 49.9014 7.76989 50.1864 7.1733C50.4748 6.57339 50.8758 6.10606 51.3896 5.77131C51.9066 5.43324 52.5098 5.2642 53.1992 5.2642C53.5969 5.2642 53.9897 5.33049 54.3775 5.46307C54.7653 5.59564 55.1183 5.81108 55.4364 6.10938C55.7546 6.40436 56.0082 6.79545 56.1971 7.28267C56.386 7.76989 56.4805 8.36979 56.4805 9.08239V9.57955H50.5941V8.56534H55.2873C55.2873 8.13447 55.2011 7.75 55.0288 7.41193C54.8597 7.07386 54.6178 6.80705 54.3029 6.61151C53.9914 6.41596 53.6235 6.31818 53.1992 6.31818C52.7319 6.31818 52.3275 6.43419 51.9862 6.66619C51.6481 6.89489 51.3879 7.19318 51.2056 7.56108C51.0233 7.92898 50.9322 8.32339 50.9322 8.74432V9.42045C50.9322 9.99716 51.0316 10.486 51.2305 10.8871C51.4326 11.2848 51.7127 11.5881 52.0707 11.7969C52.4286 12.0024 52.8446 12.1051 53.3185 12.1051C53.6268 12.1051 53.9052 12.062 54.1538 11.9759C54.4057 11.8864 54.6228 11.7538 54.805 11.5781C54.9873 11.3991 55.1282 11.1771 55.2276 10.9119L56.3612 11.2301C56.2418 11.6146 56.0413 11.9527 55.7596 12.2443C55.4779 12.5327 55.1299 12.758 54.7156 12.9205C54.3013 13.0795 53.8356 13.1591 53.3185 13.1591ZM63.6744 7.07386L62.6204 7.37216C62.5541 7.1965 62.4563 7.0258 62.3271 6.86009C62.2011 6.69105 62.0288 6.55185 61.81 6.44247C61.5913 6.3331 61.3112 6.27841 60.9698 6.27841C60.5025 6.27841 60.113 6.38613 59.8015 6.60156C59.4933 6.81368 59.3391 7.08381 59.3391 7.41193C59.3391 7.7036 59.4452 7.93395 59.6573 8.10298C59.8694 8.27202 60.2009 8.41288 60.6516 8.52557L61.7852 8.80398C62.4679 8.9697 62.9767 9.22325 63.3114 9.56463C63.6462 9.9027 63.8136 10.3385 63.8136 10.8722C63.8136 11.3097 63.6876 11.7008 63.4357 12.0455C63.1871 12.3902 62.8391 12.6619 62.3917 12.8608C61.9442 13.0597 61.4239 13.1591 60.8306 13.1591C60.0517 13.1591 59.4071 12.9901 58.8967 12.652C58.3862 12.3139 58.0631 11.8201 57.9272 11.1705L59.0408 10.892C59.1469 11.303 59.3474 11.6113 59.6424 11.8168C59.9407 12.0223 60.3301 12.125 60.8107 12.125C61.3576 12.125 61.7918 12.009 62.1133 11.777C62.4381 11.5417 62.6005 11.2599 62.6005 10.9318C62.6005 10.6667 62.5077 10.4446 62.3221 10.2656C62.1365 10.0833 61.8514 9.94744 61.467 9.85795L60.1942 9.55966C59.4949 9.39394 58.9812 9.13707 58.6531 8.78906C58.3282 8.43774 58.1658 7.99858 58.1658 7.47159C58.1658 7.04072 58.2868 6.65956 58.5288 6.32812C58.774 5.99669 59.1071 5.73651 59.5281 5.54758C59.9523 5.35866 60.4329 5.2642 60.9698 5.2642C61.7255 5.2642 62.3188 5.42992 62.7496 5.76136C63.1838 6.0928 63.4921 6.5303 63.6744 7.07386ZM70.9888 7.07386L69.9348 7.37216C69.8685 7.1965 69.7708 7.0258 69.6415 6.86009C69.5156 6.69105 69.3432 6.55185 69.1245 6.44247C68.9057 6.3331 68.6257 6.27841 68.2843 6.27841C67.8169 6.27841 67.4275 6.38613 67.1159 6.60156C66.8077 6.81368 66.6536 7.08381 66.6536 7.41193C66.6536 7.7036 66.7596 7.93395 66.9718 8.10298C67.1839 8.27202 67.5153 8.41288 67.9661 8.52557L69.0996 8.80398C69.7824 8.9697 70.2911 9.22325 70.6259 9.56463C70.9606 9.9027 71.128 10.3385 71.128 10.8722C71.128 11.3097 71.0021 11.7008 70.7502 12.0455C70.5016 12.3902 70.1536 12.6619 69.7061 12.8608C69.2587 13.0597 68.7383 13.1591 68.1451 13.1591C67.3662 13.1591 66.7215 12.9901 66.2111 12.652C65.7007 12.3139 65.3775 11.8201 65.2417 11.1705L66.3553 10.892C66.4614 11.303 66.6619 11.6113 66.9569 11.8168C67.2551 12.0223 67.6446 12.125 68.1252 12.125C68.6721 12.125 69.1062 12.009 69.4277 11.777C69.7525 11.5417 69.915 11.2599 69.915 10.9318C69.915 10.6667 69.8221 10.4446 69.6365 10.2656C69.4509 10.0833 69.1659 9.94744 68.7814 9.85795L67.5087 9.55966C66.8094 9.39394 66.2956 9.13707 65.9675 8.78906C65.6427 8.43774 65.4803 7.99858 65.4803 7.47159C65.4803 7.04072 65.6013 6.65956 65.8432 6.32812C66.0885 5.99669 66.4216 5.73651 66.8425 5.54758C67.2667 5.35866 67.7473 5.2642 68.2843 5.2642C69.04 5.2642 69.6332 5.42992 70.0641 5.76136C70.4983 6.0928 70.8065 6.5303 70.9888 7.07386Z" fill="#474F55"/>
<path d="M131.151 13H129.858L133.597 2.81818H134.869L138.608 13H137.315L134.273 4.42898H134.193L131.151 13ZM131.628 9.02273H136.838V10.1165H131.628V9.02273ZM145.444 7.07386L144.39 7.37216C144.324 7.1965 144.226 7.0258 144.097 6.86009C143.971 6.69105 143.798 6.55185 143.58 6.44247C143.361 6.3331 143.081 6.27841 142.739 6.27841C142.272 6.27841 141.883 6.38613 141.571 6.60156C141.263 6.81368 141.109 7.08381 141.109 7.41193C141.109 7.7036 141.215 7.93395 141.427 8.10298C141.639 8.27202 141.97 8.41288 142.421 8.52557L143.555 8.80398C144.237 8.9697 144.746 9.22325 145.081 9.56463C145.416 9.9027 145.583 10.3385 145.583 10.8722C145.583 11.3097 145.457 11.7008 145.205 12.0455C144.957 12.3902 144.609 12.6619 144.161 12.8608C143.714 13.0597 143.193 13.1591 142.6 13.1591C141.821 13.1591 141.177 12.9901 140.666 12.652C140.156 12.3139 139.833 11.8201 139.697 11.1705L140.81 10.892C140.916 11.303 141.117 11.6113 141.412 11.8168C141.71 12.0223 142.1 12.125 142.58 12.125C143.127 12.125 143.561 12.009 143.883 11.777C144.208 11.5417 144.37 11.2599 144.37 10.9318C144.37 10.6667 144.277 10.4446 144.092 10.2656C143.906 10.0833 143.621 9.94744 143.237 9.85795L141.964 9.55966C141.264 9.39394 140.751 9.13707 140.423 8.78906C140.098 8.43774 139.935 7.99858 139.935 7.47159C139.935 7.04072 140.056 6.65956 140.298 6.32812C140.544 5.99669 140.877 5.73651 141.298 5.54758C141.722 5.35866 142.202 5.2642 142.739 5.2642C143.495 5.2642 144.088 5.42992 144.519 5.76136C144.953 6.0928 145.262 6.5303 145.444 7.07386ZM148.443 10.2159L148.423 8.7642H148.662L152.003 5.36364H153.454L149.895 8.96307H149.795L148.443 10.2159ZM147.349 13V2.81818H148.523V13H147.349ZM152.202 13L149.219 9.22159L150.054 8.40625L153.693 13H152.202ZM161.149 13.179C160.665 13.179 160.226 13.0878 159.832 12.9055C159.437 12.7199 159.124 12.4531 158.892 12.1051C158.66 11.7538 158.544 11.3295 158.544 10.8324C158.544 10.3949 158.63 10.0402 158.803 9.76847C158.975 9.49337 159.205 9.27794 159.494 9.12216C159.782 8.96638 160.1 8.85038 160.448 8.77415C160.799 8.6946 161.152 8.63163 161.507 8.58523C161.971 8.52557 162.347 8.48082 162.636 8.45099C162.927 8.41785 163.139 8.36316 163.272 8.28693C163.408 8.2107 163.476 8.07812 163.476 7.8892V7.84943C163.476 7.3589 163.342 6.97775 163.073 6.70597C162.808 6.43419 162.405 6.2983 161.865 6.2983C161.305 6.2983 160.866 6.42093 160.548 6.66619C160.229 6.91146 160.006 7.1733 159.876 7.4517L158.763 7.05398C158.962 6.58996 159.227 6.22869 159.558 5.97017C159.893 5.70833 160.258 5.52604 160.652 5.4233C161.05 5.31723 161.441 5.2642 161.825 5.2642C162.071 5.2642 162.352 5.29403 162.67 5.35369C162.992 5.41004 163.302 5.5277 163.6 5.70668C163.902 5.88565 164.152 6.15578 164.351 6.51705C164.55 6.87831 164.649 7.36222 164.649 7.96875V13H163.476V11.9659H163.416C163.337 12.1316 163.204 12.3089 163.018 12.4979C162.833 12.6868 162.586 12.8475 162.278 12.9801C161.969 13.1127 161.593 13.179 161.149 13.179ZM161.328 12.125C161.792 12.125 162.183 12.0339 162.501 11.8516C162.823 11.6693 163.065 11.4339 163.227 11.1456C163.393 10.8572 163.476 10.554 163.476 10.2358V9.16193C163.426 9.22159 163.317 9.27628 163.148 9.32599C162.982 9.3724 162.79 9.41383 162.571 9.45028C162.356 9.48343 162.145 9.51326 161.94 9.53977C161.737 9.56297 161.573 9.58286 161.447 9.59943C161.143 9.6392 160.857 9.70384 160.592 9.79332C160.33 9.8795 160.118 10.0104 159.956 10.1861C159.797 10.3584 159.717 10.5937 159.717 10.892C159.717 11.2997 159.868 11.608 160.17 11.8168C160.475 12.0223 160.861 12.125 161.328 12.125ZM168.521 13L166.194 5.36364H167.427L169.078 11.2102H169.157L170.788 5.36364H172.041L173.651 11.1903H173.731L175.382 5.36364H176.615L174.288 13H173.134L171.464 7.13352H171.345L169.674 13H168.521ZM180.413 13.179C179.929 13.179 179.49 13.0878 179.095 12.9055C178.701 12.7199 178.388 12.4531 178.156 12.1051C177.924 11.7538 177.808 11.3295 177.808 10.8324C177.808 10.3949 177.894 10.0402 178.066 9.76847C178.239 9.49337 178.469 9.27794 178.757 9.12216C179.046 8.96638 179.364 8.85038 179.712 8.77415C180.063 8.6946 180.416 8.63163 180.771 8.58523C181.235 8.52557 181.611 8.48082 181.899 8.45099C182.191 8.41785 182.403 8.36316 182.536 8.28693C182.672 8.2107 182.74 8.07812 182.74 7.8892V7.84943C182.74 7.3589 182.605 6.97775 182.337 6.70597C182.072 6.43419 181.669 6.2983 181.129 6.2983C180.569 6.2983 180.129 6.42093 179.811 6.66619C179.493 6.91146 179.269 7.1733 179.14 7.4517L178.026 7.05398C178.225 6.58996 178.49 6.22869 178.822 5.97017C179.157 5.70833 179.521 5.52604 179.916 5.4233C180.313 5.31723 180.704 5.2642 181.089 5.2642C181.334 5.2642 181.616 5.29403 181.934 5.35369C182.256 5.41004 182.566 5.5277 182.864 5.70668C183.165 5.88565 183.416 6.15578 183.615 6.51705C183.813 6.87831 183.913 7.36222 183.913 7.96875V13H182.74V11.9659H182.68C182.6 12.1316 182.468 12.3089 182.282 12.4979C182.097 12.6868 181.85 12.8475 181.541 12.9801C181.233 13.1127 180.857 13.179 180.413 13.179ZM180.592 12.125C181.056 12.125 181.447 12.0339 181.765 11.8516C182.087 11.6693 182.329 11.4339 182.491 11.1456C182.657 10.8572 182.74 10.554 182.74 10.2358V9.16193C182.69 9.22159 182.58 9.27628 182.411 9.32599C182.246 9.3724 182.053 9.41383 181.835 9.45028C181.619 9.48343 181.409 9.51326 181.203 9.53977C181.001 9.56297 180.837 9.58286 180.711 9.59943C180.406 9.6392 180.121 9.70384 179.856 9.79332C179.594 9.8795 179.382 10.0104 179.22 10.1861C179.061 10.3584 178.981 10.5937 178.981 10.892C178.981 11.2997 179.132 11.608 179.433 11.8168C179.738 12.0223 180.124 12.125 180.592 12.125ZM186.537 15.8636C186.338 15.8636 186.16 15.8471 186.005 15.8139C185.849 15.7841 185.741 15.7543 185.681 15.7244L185.98 14.6903C186.265 14.7633 186.517 14.7898 186.735 14.7699C186.954 14.75 187.148 14.6522 187.317 14.4766C187.489 14.3042 187.647 14.0241 187.789 13.6364L188.008 13.0398L185.184 5.36364H186.457L188.565 11.4489H188.645L190.752 5.36364H192.025L188.784 14.1136C188.638 14.508 188.457 14.8345 188.242 15.093C188.026 15.3549 187.776 15.5488 187.491 15.6747C187.209 15.8007 186.891 15.8636 186.537 15.8636Z" fill="#474F55"/>
<path d="M250.306 13V2.81818H251.539V11.9062H256.272V13H250.306ZM258.022 13V5.36364H259.195V13H258.022ZM258.619 4.09091C258.39 4.09091 258.193 4.01302 258.027 3.85724C257.865 3.70147 257.783 3.5142 257.783 3.29545C257.783 3.0767 257.865 2.88944 258.027 2.73366C258.193 2.57789 258.39 2.5 258.619 2.5C258.847 2.5 259.043 2.57789 259.205 2.73366C259.371 2.88944 259.454 3.0767 259.454 3.29545C259.454 3.5142 259.371 3.70147 259.205 3.85724C259.043 4.01302 258.847 4.09091 258.619 4.09091ZM266.753 7.07386L265.699 7.37216C265.633 7.1965 265.535 7.0258 265.406 6.86009C265.28 6.69105 265.108 6.55185 264.889 6.44247C264.67 6.3331 264.39 6.27841 264.049 6.27841C263.582 6.27841 263.192 6.38613 262.881 6.60156C262.572 6.81368 262.418 7.08381 262.418 7.41193C262.418 7.7036 262.524 7.93395 262.736 8.10298C262.949 8.27202 263.28 8.41288 263.731 8.52557L264.864 8.80398C265.547 8.9697 266.056 9.22325 266.391 9.56463C266.725 9.9027 266.893 10.3385 266.893 10.8722C266.893 11.3097 266.767 11.7008 266.515 12.0455C266.266 12.3902 265.918 12.6619 265.471 12.8608C265.023 13.0597 264.503 13.1591 263.91 13.1591C263.131 13.1591 262.486 12.9901 261.976 12.652C261.465 12.3139 261.142 11.8201 261.006 11.1705L262.12 10.892C262.226 11.303 262.427 11.6113 262.722 11.8168C263.02 12.0223 263.409 12.125 263.89 12.125C264.437 12.125 264.871 12.009 265.192 11.777C265.517 11.5417 265.68 11.2599 265.68 10.9318C265.68 10.6667 265.587 10.4446 265.401 10.2656C265.216 10.0833 264.931 9.94744 264.546 9.85795L263.273 9.55966C262.574 9.39394 262.06 9.13707 261.732 8.78906C261.407 8.43774 261.245 7.99858 261.245 7.47159C261.245 7.04072 261.366 6.65956 261.608 6.32812C261.853 5.99669 262.186 5.73651 262.607 5.54758C263.031 5.35866 263.512 5.2642 264.049 5.2642C264.805 5.2642 265.398 5.42992 265.829 5.76136C266.263 6.0928 266.571 6.5303 266.753 7.07386ZM271.98 5.36364V6.35795H268.022V5.36364H271.98ZM269.176 3.53409H270.349V10.8125C270.349 11.1439 270.397 11.3925 270.493 11.5582C270.593 11.7206 270.719 11.83 270.871 11.8864C271.027 11.9394 271.191 11.9659 271.363 11.9659C271.493 11.9659 271.599 11.9593 271.682 11.946C271.764 11.9295 271.831 11.9162 271.88 11.9062L272.119 12.9602C272.04 12.9901 271.928 13.0199 271.786 13.0497C271.643 13.0829 271.463 13.0994 271.244 13.0994C270.913 13.0994 270.588 13.0282 270.27 12.8857C269.955 12.7431 269.693 12.526 269.484 12.2344C269.279 11.9427 269.176 11.5748 269.176 11.1307V3.53409ZM276.864 13.1591C276.129 13.1591 275.494 12.9967 274.96 12.6719C274.43 12.3438 274.021 11.8864 273.732 11.2997C273.447 10.7098 273.305 10.0237 273.305 9.24148C273.305 8.45928 273.447 7.76989 273.732 7.1733C274.021 6.57339 274.422 6.10606 274.935 5.77131C275.453 5.43324 276.056 5.2642 276.745 5.2642C277.143 5.2642 277.536 5.33049 277.923 5.46307C278.311 5.59564 278.664 5.81108 278.982 6.10938C279.301 6.40436 279.554 6.79545 279.743 7.28267C279.932 7.76989 280.026 8.36979 280.026 9.08239V9.57955H274.14V8.56534H278.833C278.833 8.13447 278.747 7.75 278.575 7.41193C278.406 7.07386 278.164 6.80705 277.849 6.61151C277.537 6.41596 277.169 6.31818 276.745 6.31818C276.278 6.31818 275.873 6.43419 275.532 6.66619C275.194 6.89489 274.934 7.19318 274.752 7.56108C274.569 7.92898 274.478 8.32339 274.478 8.74432V9.42045C274.478 9.99716 274.578 10.486 274.776 10.8871C274.979 11.2848 275.259 11.5881 275.617 11.7969C275.975 12.0024 276.39 12.1051 276.864 12.1051C277.173 12.1051 277.451 12.062 277.7 11.9759C277.952 11.8864 278.169 11.7538 278.351 11.5781C278.533 11.3991 278.674 11.1771 278.774 10.9119L279.907 11.2301C279.788 11.6146 279.587 11.9527 279.305 12.2443C279.024 12.5327 278.676 12.758 278.261 12.9205C277.847 13.0795 277.381 13.1591 276.864 13.1591ZM282.984 8.40625V13H281.811V5.36364H282.945V6.55682H283.044C283.223 6.16903 283.495 5.85748 283.859 5.62216C284.224 5.38352 284.695 5.2642 285.271 5.2642C285.788 5.2642 286.241 5.37027 286.629 5.58239C287.016 5.79119 287.318 6.10938 287.533 6.53693C287.749 6.96117 287.857 7.49811 287.857 8.14773V13H286.683V8.22727C286.683 7.62737 286.528 7.16004 286.216 6.82528C285.904 6.48722 285.477 6.31818 284.933 6.31818C284.559 6.31818 284.224 6.39938 283.929 6.56179C283.637 6.72419 283.407 6.96117 283.238 7.27273C283.069 7.58428 282.984 7.96212 282.984 8.40625Z" fill="#474F55"/>
<path d="M161.24 129C157.398 129.001 153.628 130.044 150.332 132.019C147.036 133.993 144.337 136.824 142.523 140.211C140.709 143.598 139.848 147.413 140.031 151.25C140.214 155.088 141.434 158.804 143.562 162.003L140 171.479L151.927 169.323C154.799 170.726 157.95 171.463 161.147 171.479C164.343 171.495 167.502 170.789 170.388 169.414C173.274 168.039 175.812 166.031 177.813 163.538C179.815 161.046 181.228 158.134 181.947 155.019C182.666 151.905 182.673 148.668 181.968 145.55C181.262 142.433 179.862 139.515 177.871 137.013C175.881 134.512 173.351 132.493 170.472 131.105C167.592 129.718 164.436 128.998 161.24 129Z" stroke="black" stroke-width="3.14286" stroke-linecap="round" stroke-linejoin="round"/>
<path d="M153.809 143.634C153.354 143.634 152.984 143.264 152.984 142.809C152.984 142.354 153.354 141.984 153.809 141.984" stroke="black" stroke-width="3.14286" stroke-linecap="round" stroke-linejoin="round"/>
<path d="M153.812 143.634C154.268 143.634 154.637 143.264 154.637 142.809C154.637 142.354 154.268 141.984 153.812 141.984" stroke="black" stroke-width="3.14286" stroke-linecap="round" stroke-linejoin="round"/>
<path d="M168.661 143.634C168.205 143.634 167.836 143.264 167.836 142.809C167.836 142.354 168.205 141.984 168.661 141.984" stroke="black" stroke-width="3.14286" stroke-linecap="round" stroke-linejoin="round"/>
<path d="M168.656 143.634C169.112 143.634 169.481 143.264 169.481 142.809C169.481 142.354 169.112 141.984 168.656 141.984" stroke="black" stroke-width="3.14286" stroke-linecap="round" stroke-linejoin="round"/>
<path d="M161.232 163.427C167.607 163.427 172.776 158.258 172.776 151.883H149.688C149.688 158.258 154.856 163.427 161.232 163.427Z" stroke="black" stroke-width="3.14286" stroke-linecap="round" stroke-linejoin="round"/>
<g clip-path="url(#clip0_3423_4531)">
<path d="M44.5209 156.863L40.6262 153.154C39.2547 151.848 37.0711 151.947 35.8238 153.373C34.6967 154.661 34.7299 156.594 35.9006 157.843L48.5963 171.385C49.4043 172.246 50.5306 172.735 51.7117 172.735H61.614C66.742 172.735 70.1605 168.462 70.1605 164.189V145.875" stroke="black" stroke-width="3.125" stroke-linecap="round" stroke-linejoin="round"/>
<path d="M63.7578 147.095V145.874C63.7578 140.99 70.1678 140.99 70.1678 145.874" stroke="black" stroke-width="3.125" stroke-linecap="round" stroke-linejoin="round"/>
<path d="M57.3359 147.091V143.428C57.3359 138.545 63.7457 138.545 63.7457 143.428V147.091" stroke="black" stroke-width="3.125" stroke-linecap="round" stroke-linejoin="round"/>
<path d="M50.9141 147.09V141.749C50.9141 136.865 57.324 136.865 57.324 141.749V147.09" stroke="black" stroke-width="3.125" stroke-linecap="round" stroke-linejoin="round"/>
<path d="M44.5234 156.86V133.205C44.5234 131.435 45.9584 130 47.7285 130C49.4984 130 50.9334 131.433 50.9334 133.203V147.093" stroke="black" stroke-width="3.125" stroke-linecap="round" stroke-linejoin="round"/>
</g>
<path d="M290.555 160.773V149.992C290.555 146.065 289.505 142.383 287.67 139.211M247.43 162.93V149.992C247.43 138.084 257.084 128.43 268.992 128.43C272.92 128.43 276.602 129.48 279.773 131.314" stroke="black" stroke-width="2.25" stroke-linecap="round"/>
<path d="M260.367 156.88C260.367 155.633 260.367 155.009 260.218 154.514C259.874 153.369 258.975 152.5 257.857 152.232C257.373 152.116 256.779 152.164 255.59 152.263C253.527 152.433 252.495 152.518 251.655 152.843C249.715 153.593 248.236 155.268 247.674 157.349C247.43 158.251 247.43 159.333 247.43 161.497V161.897C247.43 164.116 247.43 165.226 247.695 166.165C248.216 168.007 249.461 169.531 251.12 170.356C251.965 170.777 253.013 170.95 255.109 171.296C256.5 171.526 257.195 171.641 257.758 171.525C258.867 171.296 259.781 170.479 260.17 169.369C260.367 168.806 260.367 168.069 260.367 166.597V156.88Z" stroke="black" stroke-width="2.25"/>
<path d="M277.625 156.88C277.625 155.633 277.625 155.009 277.774 154.514C278.118 153.369 279.017 152.5 280.135 152.232C280.619 152.116 281.213 152.164 282.402 152.263C284.465 152.433 285.497 152.518 286.338 152.843C288.277 153.593 289.756 155.268 290.319 157.349C290.562 158.251 290.563 159.333 290.563 161.497V161.897C290.563 164.116 290.562 165.226 290.297 166.165C289.777 168.007 288.531 169.531 286.873 170.356C286.027 170.777 284.979 170.95 282.883 171.296C281.493 171.526 280.797 171.641 280.234 171.525C279.126 171.296 278.211 170.479 277.822 169.369C277.625 168.806 277.625 168.069 277.625 166.597V156.88Z" stroke="black" stroke-width="2.25"/>
<path d="M269 138.133V148.914" stroke="black" stroke-width="2.25" stroke-linecap="round"/>
<path d="M275.469 141.375V145.687" stroke="black" stroke-width="2.25" stroke-linecap="round"/>
<path d="M262.531 141.375V145.687" stroke="black" stroke-width="2.25" stroke-linecap="round"/>
<defs>
<clipPath id="clip0_3423_4531">
<rect width="50" height="50" fill="white" transform="translate(28 123)"/>
</clipPath>
</defs>
</svg>
