<svg width="252" height="39" viewBox="0 0 252 39" fill="none" xmlns="http://www.w3.org/2000/svg">
<path d="M13.9394 29.5195H8.8964L-0.000604233 0.819529H5.7804L12.2584 22.1395H12.5454L19.1874 0.819529H24.1074L30.8314 22.1395H31.1184L37.5554 0.819529H41.4914L32.5944 29.5195H27.6334L20.9094 8.77353H20.6224L13.9394 29.5195ZM53.654 30.1345C51.4673 30.1345 49.4993 29.6562 47.75 28.6995C46.0006 27.7429 44.6203 26.4445 43.609 24.8045C42.625 23.1372 42.133 21.2649 42.133 19.1875C42.133 17.1102 42.625 15.2515 43.609 13.6115C44.6203 11.9442 46.0006 10.6322 47.75 9.67553C49.4993 8.71886 51.4673 8.24053 53.654 8.24053C55.8133 8.24053 57.7676 8.71886 59.517 9.67553C61.2936 10.6322 62.674 11.9442 63.658 13.6115C64.6693 15.2789 65.175 17.1375 65.175 19.1875C65.175 21.2375 64.6693 23.0962 63.658 24.7635C62.674 26.4309 61.2936 27.7429 59.517 28.6995C57.7676 29.6562 55.8133 30.1345 53.654 30.1345ZM53.654 27.4285C55.5126 27.4285 57.0023 26.6769 58.123 25.1735C59.271 23.6702 59.845 21.6749 59.845 19.1875C59.845 16.7002 59.271 14.7049 58.123 13.2015C57.0023 11.6982 55.5126 10.9465 53.654 10.9465C51.768 10.9465 50.251 11.6982 49.103 13.2015C47.9823 14.7049 47.422 16.7002 47.422 19.1875C47.422 21.6749 47.9823 23.6702 49.103 25.1735C50.251 26.6769 51.768 27.4285 53.654 27.4285ZM69.8785 14.3495C69.8785 13.3655 69.8101 12.3542 69.6735 11.3155C69.5368 10.2769 69.3728 9.45686 69.1815 8.85553H74.3885C74.6071 9.7302 74.7165 10.5912 74.7165 11.4385H75.0035C76.0695 10.3999 77.2585 9.6072 78.5705 9.06053C79.8825 8.51386 81.2491 8.24053 82.6705 8.24053C85.0211 8.24053 86.8661 8.97853 88.2055 10.4545C89.5721 11.9305 90.2555 13.9669 90.2555 16.5635V29.5195H85.1305V16.5635C85.1305 14.7869 84.7615 13.4339 84.0235 12.5045C83.2855 11.5752 82.2058 11.1105 80.7845 11.1105C79.6365 11.1105 78.5431 11.3839 77.5045 11.9305C76.4931 12.4772 75.6595 13.2425 75.0035 14.2265V29.5195H69.8785V14.3495ZM105.035 30.1345C103.122 30.1345 101.373 29.6562 99.7873 28.6995C98.2293 27.7155 96.9993 26.3899 96.0973 24.7225C95.1953 23.0552 94.7443 21.2102 94.7443 19.1875C94.7443 17.1649 95.1953 15.3199 96.0973 13.6525C96.9993 11.9852 98.2293 10.6732 99.7873 9.71653C101.373 8.73253 103.108 8.24053 104.994 8.24053C106.252 8.24053 107.468 8.47286 108.643 8.93753C109.819 9.37486 110.844 10.0172 111.718 10.8645H112.005V-0.000469923H117.13V24.0255C117.13 25.0095 117.199 26.0345 117.335 27.1005C117.472 28.1392 117.636 28.9455 117.827 29.5195H112.62C112.402 28.6449 112.292 27.7975 112.292 26.9775H112.005C110.065 29.0822 107.741 30.1345 105.035 30.1345ZM106.593 27.3055C107.632 27.3055 108.63 27.0322 109.586 26.4855C110.57 25.9115 111.377 25.1325 112.005 24.1485V13.9805C111.322 13.0785 110.516 12.3815 109.586 11.8895C108.684 11.3975 107.728 11.1515 106.716 11.1515C105.432 11.1515 104.27 11.4932 103.231 12.1765C102.22 12.8599 101.427 13.8165 100.853 15.0465C100.307 16.2492 100.033 17.6295 100.033 19.1875C100.033 20.7182 100.32 22.0985 100.894 23.3285C101.468 24.5585 102.247 25.5289 103.231 26.2395C104.243 26.9502 105.363 27.3055 106.593 27.3055ZM143.457 18.4085C143.457 19.1465 143.361 19.7889 143.17 20.3355H127.139C127.357 22.4949 128.095 24.2032 129.353 25.4605C130.637 26.7179 132.277 27.3465 134.273 27.3465C135.639 27.3465 136.91 27.0322 138.086 26.4035C139.261 25.7475 140.177 24.8729 140.833 23.7795L142.391 25.2145C141.571 26.6632 140.3 27.8522 138.578 28.7815C136.856 29.6835 135.024 30.1345 133.084 30.1345C131.006 30.1345 129.107 29.6562 127.385 28.6995C125.69 27.7429 124.351 26.4309 123.367 24.7635C122.383 23.0962 121.891 21.2375 121.891 19.1875C121.891 17.1375 122.369 15.2789 123.326 13.6115C124.282 11.9442 125.608 10.6322 127.303 9.67553C128.997 8.71886 130.883 8.24053 132.961 8.24053C134.929 8.24053 136.705 8.69153 138.291 9.59353C139.903 10.4682 141.161 11.6845 142.063 13.2425C142.992 14.7732 143.457 16.4952 143.457 18.4085ZM133.002 11.0285C131.389 11.0285 130.063 11.6025 129.025 12.7505C127.986 13.8985 127.371 15.5112 127.18 17.5885H138.455C138.263 15.4565 137.703 13.8302 136.774 12.7095C135.844 11.5889 134.587 11.0285 133.002 11.0285ZM148.195 14.3495C148.195 13.3655 148.127 12.3542 147.99 11.3155C147.853 10.2769 147.689 9.45686 147.498 8.85553H152.705C152.924 9.7302 153.033 10.5912 153.033 11.4385H153.32C154.031 10.5092 154.987 9.74386 156.19 9.14253C157.393 8.5412 158.582 8.24053 159.757 8.24053C160.987 8.24053 162.067 8.40453 162.996 8.73253L161.971 12.0125C161.233 11.6845 160.263 11.5205 159.06 11.5205C158.021 11.5205 156.955 11.7939 155.862 12.3405C154.769 12.8599 153.921 13.5295 153.32 14.3495V29.5195H148.195V14.3495ZM178.58 29.5195H173.537L164.64 0.819529H170.421L176.899 22.1395H177.186L183.828 0.819529H188.748L195.472 22.1395H195.759L202.196 0.819529H206.132L197.235 29.5195H192.274L185.55 8.77353H185.263L178.58 29.5195ZM226.946 24.0255C226.946 25.0095 227.014 26.0345 227.151 27.1005C227.287 28.1392 227.451 28.9455 227.643 29.5195H222.477C222.231 28.5355 222.108 27.6882 222.108 26.9775H221.862C221.069 27.9342 219.989 28.6995 218.623 29.2735C217.256 29.8475 215.848 30.1345 214.4 30.1345C212.896 30.1345 211.557 29.8475 210.382 29.2735C209.234 28.6995 208.332 27.8932 207.676 26.8545C207.047 25.8159 206.733 24.6405 206.733 23.3285C206.733 21.9345 207.088 20.6909 207.799 19.5975C208.537 18.5042 209.548 17.6569 210.833 17.0555C212.117 16.4542 213.58 16.1535 215.22 16.1535C216.313 16.1535 217.434 16.3039 218.582 16.6045C219.73 16.8779 220.823 17.2879 221.862 17.8345V16.9735C221.862 15.1149 221.342 13.6525 220.304 12.5865C219.292 11.5205 217.912 10.9875 216.163 10.9875C215.069 10.9875 214.017 11.2199 213.006 11.6845C211.994 12.1219 211.092 12.7369 210.3 13.5295L208.742 12.1355C209.917 10.8509 211.256 9.88053 212.76 9.22453C214.263 8.56853 215.889 8.24053 217.639 8.24053C219.497 8.24053 221.124 8.60953 222.518 9.34753C223.939 10.0582 225.032 11.0695 225.798 12.3815C226.563 13.6935 226.946 15.2242 226.946 16.9735V24.0255ZM216.204 27.3055C217.215 27.3055 218.254 27.0185 219.32 26.4445C220.386 25.8432 221.233 25.0779 221.862 24.1485V20.3355C220.987 19.8709 220.085 19.5155 219.156 19.2695C218.254 18.9962 217.434 18.8595 216.696 18.8595C215.274 18.8595 214.126 19.2559 213.252 20.0485C212.404 20.8412 211.981 21.8935 211.981 23.2055C211.981 24.4082 212.363 25.3922 213.129 26.1575C213.921 26.9229 214.946 27.3055 216.204 27.3055ZM248.141 8.85553H251.831L242.729 30.4215C240.46 35.8335 237.508 38.5395 233.873 38.5395C232.944 38.5395 232.083 38.3755 231.29 38.0475V35.0955H232.356C233.914 35.0955 235.185 34.7265 236.169 33.9885C237.153 33.2779 237.987 32.0889 238.67 30.4215L239.121 29.3555L229.773 8.85553H235.349L241.827 23.6155H242.114L248.141 8.85553Z" fill="black"/>
</svg>
